# xmcd
#
# Track frame offsets:
#	150
#	13459
#	33087
#	50051
#	65959
#	79951
#	97513
#	117365
#	134217
#	150344
#	163749
#	181283
#	195889
#
# Disc length: 2848 seconds
#
# Revision: 2
# Processed by: cddbd v1.5.2PL0 Copyright (c) Steve Scherf et al.
# Submitted via: EZCDAudioConverter 3.1.5.1
#
DISCID=ad0b1e0d
DTITLE=Leann Rimes - Spitfire
DYEAR=2013
DGENRE=Country
TTITLE0=Spitfire
TTITLE1=What Have I Done
TTITLE2=Gasoline And Matches
TTITLE3=Borrowed
TTITLE4=You Ain't Right
TTITLE5=I Do Now
TTITLE6=Where I Stood
TTITLE7=You've Ruined Me
TTITLE8=Bottle
TTITLE9=A Waste Is A Terrible Thing To Mind
TTITLE10=Just A Girl Like You
TTITLE11=God Takes Care Of Your Kind
TTITLE12=Who We Really Are
EXTD=
EXTT0=
EXTT1=
EXTT2=
EXTT3=
EXTT4=
EXTT5=
EXTT6=
EXTT7=
EXTT8=
EXTT9=
EXTT10=
EXTT11=
EXTT12=
PLAYORDER=
